<svg width="148" height="34" viewBox="0 0 148 34" fill="none" xmlns="http://www.w3.org/2000/svg">
<path d="M11.7091 0H6.10909C2.73513 0 0 2.73513 0 6.10909V6.61818C0 9.99214 2.73513 12.7273 6.10909 12.7273H11.7091C15.083 12.7273 17.8182 9.99214 17.8182 6.61818V6.10909C17.8182 2.73513 15.083 0 11.7091 0Z" fill="url(#paint0_linear_65_5)"/>
<path d="M5.09082 12.7273H9.16355L7.12718 16.2909L5.09082 12.7273Z" fill="#6BC273"/>
<path opacity="0.7" d="M23.1818 10H18.0909C15.2793 10 13 12.2793 13 15.0909C13 17.9025 15.2793 20.1818 18.0909 20.1818H23.1818C25.9934 20.1818 28.2727 17.9025 28.2727 15.0909C28.2727 12.2793 25.9934 10 23.1818 10Z" fill="#4DAB54"/>
<path opacity="0.7" d="M21.3818 20.3636H24.4364L22.9091 23.4182L21.3818 20.3636Z" fill="#4DAB54"/>
<path opacity="0.9" d="M4.07287 7.12731C4.6352 7.12731 5.09105 6.67145 5.09105 6.10912C5.09105 5.5468 4.6352 5.09094 4.07287 5.09094C3.51054 5.09094 3.05469 5.5468 3.05469 6.10912C3.05469 6.67145 3.51054 7.12731 4.07287 7.12731Z" fill="#FBFFF6"/>
<path opacity="0.9" d="M8.65441 7.12731C9.21674 7.12731 9.67259 6.67145 9.67259 6.10912C9.67259 5.5468 9.21674 5.09094 8.65441 5.09094C8.09209 5.09094 7.63623 5.5468 7.63623 6.10912C7.63623 6.67145 8.09209 7.12731 8.65441 7.12731Z" fill="#FBFFF6"/>
<path opacity="0.9" d="M13.7452 7.12731C14.3076 7.12731 14.7634 6.67145 14.7634 6.10912C14.7634 5.5468 14.3076 5.09094 13.7452 5.09094C13.1829 5.09094 12.7271 5.5468 12.7271 6.10912C12.7271 6.67145 13.1829 7.12731 13.7452 7.12731Z" fill="#FBFFF6"/>
<path opacity="0.8" d="M16.7998 16.0363C17.2215 16.0363 17.5634 15.6944 17.5634 15.2727C17.5634 14.8509 17.2215 14.509 16.7998 14.509C16.378 14.509 16.0361 14.8509 16.0361 15.2727C16.0361 15.6944 16.378 16.0363 16.7998 16.0363Z" fill="#FBFFF6"/>
<path opacity="0.8" d="M20.3637 16.0363C20.7855 16.0363 21.1274 15.6944 21.1274 15.2727C21.1274 14.8509 20.7855 14.509 20.3637 14.509C19.942 14.509 19.6001 14.8509 19.6001 15.2727C19.6001 15.6944 19.942 16.0363 20.3637 16.0363Z" fill="#FBFFF6"/>
<path opacity="0.8" d="M23.9272 16.0363C24.349 16.0363 24.6908 15.6944 24.6908 15.2727C24.6908 14.8509 24.349 14.509 23.9272 14.509C23.5055 14.509 23.1636 14.8509 23.1636 15.2727C23.1636 15.6944 23.5055 16.0363 23.9272 16.0363Z" fill="#FBFFF6"/>
<path d="M35.3551 19L37.7699 4.45455H40.8452L38.8565 16.4645H45.0923L44.6662 19H35.3551ZM51.5891 19.2131C50.4717 19.2131 49.546 18.9858 48.8121 18.5312C48.0782 18.072 47.5621 17.4233 47.2638 16.5852C46.9703 15.7424 46.9206 14.7457 47.1147 13.5952C47.3041 12.473 47.6853 11.4882 48.2582 10.6406C48.8358 9.79309 49.5603 9.13258 50.4315 8.65909C51.3027 8.18561 52.2733 7.94886 53.3434 7.94886C54.0631 7.94886 54.7141 8.06487 55.2965 8.29688C55.8836 8.52415 56.3713 8.86979 56.7596 9.33381C57.1478 9.79309 57.413 10.3684 57.555 11.0597C57.7018 11.7509 57.6995 12.5606 57.5479 13.4886L57.413 14.3196H48.2085L48.4996 12.4446H54.8633C54.9343 12.009 54.9059 11.6231 54.7781 11.2869C54.6502 10.9508 54.4371 10.688 54.1388 10.4986C53.8406 10.3045 53.4736 10.2074 53.038 10.2074C52.5929 10.2074 52.1763 10.3163 51.788 10.5341C51.3997 10.7519 51.073 11.0384 50.8079 11.3935C50.5475 11.7438 50.3794 12.125 50.3036 12.5369L49.9698 14.3977C49.8751 14.9706 49.8941 15.4465 50.0266 15.8253C50.1639 16.2041 50.4007 16.4882 50.7369 16.6776C51.073 16.8622 51.4992 16.9545 52.0153 16.9545C52.3514 16.9545 52.6663 16.9072 52.9599 16.8125C53.2582 16.7178 53.5233 16.5781 53.7553 16.3935C53.9873 16.2041 54.1767 15.9697 54.3235 15.6903L57.0863 15.875C56.8306 16.5473 56.4424 17.1345 55.9215 17.6364C55.4007 18.1335 54.7733 18.5218 54.0394 18.8011C53.3103 19.0758 52.4935 19.2131 51.5891 19.2131ZM61.701 19.206C61.0097 19.206 60.4107 19.0852 59.9041 18.8438C59.4022 18.5975 59.0329 18.233 58.7962 17.75C58.5594 17.267 58.5002 16.6681 58.6186 15.9531C58.7228 15.3471 58.9193 14.8404 59.2081 14.4332C59.5017 14.0213 59.8591 13.6899 60.2805 13.4389C60.7019 13.188 61.1683 12.9962 61.6797 12.8636C62.1958 12.7311 62.7285 12.6411 63.2777 12.5938C63.9122 12.5275 64.4283 12.4635 64.826 12.402C65.2285 12.3404 65.5291 12.2528 65.728 12.1392C65.9268 12.0208 66.0476 11.8456 66.0902 11.6136V11.571C66.1612 11.1259 66.0784 10.7803 65.8416 10.5341C65.6096 10.2831 65.2379 10.1577 64.7266 10.1577C64.1868 10.1577 63.7275 10.276 63.3487 10.5128C62.9747 10.7495 62.7071 11.0502 62.5462 11.4148L59.7905 11.1875C60.0367 10.5246 60.4084 9.9517 60.9055 9.46875C61.4074 8.98106 62.0111 8.60701 62.7166 8.34659C63.4221 8.08144 64.2128 7.94886 65.0888 7.94886C65.6948 7.94886 66.2607 8.01989 66.7862 8.16193C67.3165 8.30398 67.7734 8.52415 68.157 8.82244C68.5452 9.12074 68.8246 9.50426 68.995 9.97301C69.1702 10.437 69.2057 10.9934 69.1016 11.642L67.8729 19H65.0036L65.2592 17.4872H65.174C64.942 17.8281 64.6579 18.1288 64.3217 18.3892C63.9856 18.6449 63.5997 18.8461 63.1641 18.9929C62.7285 19.1349 62.2408 19.206 61.701 19.206ZM62.9155 17.1179C63.3558 17.1179 63.7607 17.0303 64.13 16.8551C64.504 16.6752 64.8118 16.4337 65.0533 16.1307C65.2995 15.8277 65.4557 15.4844 65.522 15.1009L65.7067 13.9432C65.612 14.0047 65.4747 14.0592 65.2947 14.1065C65.1196 14.1539 64.9278 14.1989 64.7195 14.2415C64.5159 14.2794 64.3099 14.3149 64.1016 14.348C63.8932 14.3764 63.7062 14.4048 63.5405 14.4332C63.1759 14.4853 62.8492 14.5682 62.5604 14.6818C62.2715 14.7955 62.0372 14.9493 61.8572 15.1435C61.6773 15.3329 61.5661 15.5696 61.5234 15.8537C61.4571 16.2656 61.5542 16.5805 61.8146 16.7983C62.0798 17.0114 62.4467 17.1179 62.9155 17.1179ZM74.2259 19.1776C73.3925 19.1776 72.6752 18.9645 72.0739 18.5384C71.4773 18.1075 71.0511 17.4754 70.7955 16.642C70.5445 15.804 70.5208 14.7765 70.7244 13.5597C70.9328 12.3097 71.3068 11.2704 71.8466 10.4418C72.3864 9.60843 73.0256 8.9858 73.7642 8.57386C74.5028 8.1572 75.2723 7.94886 76.0724 7.94886C76.6785 7.94886 77.1686 8.05303 77.5426 8.26136C77.9214 8.46496 78.2126 8.72064 78.4162 9.02841C78.6198 9.33144 78.7618 9.62973 78.8423 9.9233H78.9347L79.8509 4.45455H82.8693L80.4545 19H77.4716L77.7628 17.2528H77.6349C77.4455 17.5559 77.1946 17.8565 76.8821 18.1548C76.5743 18.4484 76.2003 18.6922 75.7599 18.8864C75.3243 19.0805 74.813 19.1776 74.2259 19.1776ZM75.5611 16.7699C76.044 16.7699 76.4796 16.6373 76.8679 16.3722C77.2562 16.1023 77.5829 15.7259 77.848 15.2429C78.1132 14.7599 78.2978 14.1941 78.402 13.5455C78.5109 12.8968 78.5133 12.3333 78.4091 11.8551C78.3049 11.3769 78.1013 11.0076 77.7983 10.7472C77.5 10.4867 77.1046 10.3565 76.6122 10.3565C76.1151 10.3565 75.6747 10.4915 75.2912 10.7614C74.9124 11.0312 74.5975 11.4053 74.3466 11.8835C74.1004 12.3617 73.9252 12.9157 73.821 13.5455C73.7169 14.1799 73.7098 14.741 73.7997 15.2287C73.8897 15.7116 74.0814 16.0904 74.375 16.3651C74.6686 16.6349 75.0639 16.7699 75.5611 16.7699Z" fill="black"/>
<path d="M83.3551 19L85.7699 4.45455H95.4006L94.9744 6.99006H88.419L87.8509 10.456H93.767L93.3409 12.9915H87.4247L86.4304 19H83.3551ZM100.438 4.45455L98.0231 19H94.9975L97.4123 4.45455H100.438ZM105.39 19.2131C104.277 19.2131 103.356 18.9763 102.627 18.5028C101.898 18.0246 101.384 17.3617 101.086 16.5142C100.792 15.6619 100.738 14.67 100.923 13.5384C101.103 12.4209 101.477 11.4432 102.045 10.6051C102.613 9.76705 103.335 9.116 104.211 8.65199C105.087 8.18324 106.074 7.94886 107.173 7.94886C108.281 7.94886 109.199 8.18797 109.928 8.66619C110.657 9.13968 111.171 9.80256 111.469 10.6548C111.768 11.5071 111.825 12.4991 111.64 13.6307C111.455 14.7434 111.076 15.7188 110.504 16.5568C109.931 17.3949 109.209 18.0483 108.337 18.517C107.466 18.9811 106.484 19.2131 105.39 19.2131ZM105.688 16.8693C106.2 16.8693 106.652 16.7249 107.045 16.4361C107.442 16.1425 107.772 15.7448 108.032 15.2429C108.297 14.7363 108.482 14.1634 108.586 13.5241C108.69 12.8944 108.697 12.3357 108.607 11.848C108.517 11.3556 108.328 10.9673 108.039 10.6832C107.755 10.3991 107.364 10.2571 106.867 10.2571C106.356 10.2571 105.901 10.4039 105.504 10.6974C105.106 10.9863 104.777 11.384 104.516 11.8906C104.256 12.3973 104.074 12.9725 103.969 13.6165C103.87 14.2415 103.863 14.8002 103.948 15.2926C104.033 15.7803 104.22 16.1662 104.509 16.4503C104.798 16.7296 105.191 16.8693 105.688 16.8693ZM114.591 19L113.44 8.09091H116.501L116.97 15.4205H117.07L120.053 8.09091H123.057L123.625 15.3778H123.717L126.601 8.09091H129.655L124.875 19H121.672L120.933 12.1392H120.798L117.787 19H114.591Z" fill="#4DAB54"/>
<defs>
<linearGradient id="paint0_linear_65_5" x1="0" y1="0" x2="1203.93" y2="1685.5" gradientUnits="userSpaceOnUse">
<stop stop-color="#4DAB54"/>
<stop offset="1" stop-color="#6BC273"/>
</linearGradient>
</defs>
</svg>
